<mxfile host="app.diagrams.net" modified="2023-03-14T09:16:18.315Z" agent="5.0 (Windows)" etag="9OgBFqDP79f08xfsCWv_" version="21.0.6" type="github">
  <diagram name="Page-1" id="fD_OZdSGoZzAREjSwwBo">
    <mxGraphModel dx="1485" dy="803" grid="1" gridSize="10" guides="1" tooltips="1" connect="1" arrows="1" fold="1" page="1" pageScale="1" pageWidth="850" pageHeight="1100" math="0" shadow="0">
      <root>
        <mxCell id="0" />
        <mxCell id="1" parent="0" />
        <mxCell id="rjuNrRQVReYTl4HhuxSp-96" value="new user create" style="edgeStyle=orthogonalEdgeStyle;rounded=0;orthogonalLoop=1;jettySize=auto;html=1;entryX=0.5;entryY=1;entryDx=0;entryDy=0;entryPerimeter=0;" edge="1" parent="1" source="rjuNrRQVReYTl4HhuxSp-2" target="rjuNrRQVReYTl4HhuxSp-10">
          <mxGeometry relative="1" as="geometry" />
        </mxCell>
        <mxCell id="rjuNrRQVReYTl4HhuxSp-2" value="Auth" style="sketch=0;points=[[0,0,0],[0.25,0,0],[0.5,0,0],[0.75,0,0],[1,0,0],[0,1,0],[0.25,1,0],[0.5,1,0],[0.75,1,0],[1,1,0],[0,0.25,0],[0,0.5,0],[0,0.75,0],[1,0.25,0],[1,0.5,0],[1,0.75,0]];outlineConnect=0;fontColor=#232F3E;gradientColor=#F78E04;gradientDirection=north;fillColor=#D05C17;strokeColor=#ffffff;dashed=0;verticalLabelPosition=bottom;verticalAlign=top;align=center;html=1;fontSize=12;fontStyle=0;aspect=fixed;shape=mxgraph.aws4.resourceIcon;resIcon=mxgraph.aws4.ecs;" vertex="1" parent="1">
          <mxGeometry x="251" y="240" width="78" height="78" as="geometry" />
        </mxCell>
        <mxCell id="rjuNrRQVReYTl4HhuxSp-4" style="edgeStyle=orthogonalEdgeStyle;rounded=0;orthogonalLoop=1;jettySize=auto;html=1;entryX=0;entryY=0.5;entryDx=0;entryDy=0;entryPerimeter=0;" edge="1" parent="1" source="rjuNrRQVReYTl4HhuxSp-3" target="rjuNrRQVReYTl4HhuxSp-2">
          <mxGeometry relative="1" as="geometry" />
        </mxCell>
        <mxCell id="rjuNrRQVReYTl4HhuxSp-3" value="" style="shape=actor;whiteSpace=wrap;html=1;" vertex="1" parent="1">
          <mxGeometry x="80" y="249" width="40" height="60" as="geometry" />
        </mxCell>
        <mxCell id="rjuNrRQVReYTl4HhuxSp-12" value="Old user login" style="edgeStyle=orthogonalEdgeStyle;rounded=0;orthogonalLoop=1;jettySize=auto;html=1;entryX=0.5;entryY=0;entryDx=0;entryDy=0;" edge="1" parent="1">
          <mxGeometry relative="1" as="geometry">
            <mxPoint x="290" y="329" as="sourcePoint" />
            <mxPoint x="290" y="400" as="targetPoint" />
          </mxGeometry>
        </mxCell>
        <mxCell id="rjuNrRQVReYTl4HhuxSp-18" style="edgeStyle=orthogonalEdgeStyle;rounded=0;orthogonalLoop=1;jettySize=auto;html=1;entryX=0.5;entryY=1;entryDx=0;entryDy=0;" edge="1" parent="1" source="rjuNrRQVReYTl4HhuxSp-10" target="rjuNrRQVReYTl4HhuxSp-20">
          <mxGeometry relative="1" as="geometry">
            <mxPoint x="290" y="40" as="targetPoint" />
          </mxGeometry>
        </mxCell>
        <mxCell id="rjuNrRQVReYTl4HhuxSp-10" value="MSSQL" style="strokeWidth=2;html=1;shape=mxgraph.flowchart.database;whiteSpace=wrap;" vertex="1" parent="1">
          <mxGeometry x="260" y="100" width="60" height="60" as="geometry" />
        </mxCell>
        <mxCell id="rjuNrRQVReYTl4HhuxSp-15" value="Correct" style="edgeStyle=orthogonalEdgeStyle;rounded=0;orthogonalLoop=1;jettySize=auto;html=1;exitX=1.05;exitY=0.681;exitDx=0;exitDy=0;exitPerimeter=0;" edge="1" parent="1" source="rjuNrRQVReYTl4HhuxSp-19">
          <mxGeometry relative="1" as="geometry">
            <mxPoint x="440" y="440" as="targetPoint" />
            <mxPoint x="330" y="440" as="sourcePoint" />
          </mxGeometry>
        </mxCell>
        <mxCell id="rjuNrRQVReYTl4HhuxSp-16" value="check user/password" style="text;html=1;strokeColor=none;fillColor=none;align=center;verticalAlign=middle;whiteSpace=wrap;rounded=0;" vertex="1" parent="1">
          <mxGeometry x="260" y="480" width="60" height="30" as="geometry" />
        </mxCell>
        <mxCell id="rjuNrRQVReYTl4HhuxSp-23" style="edgeStyle=orthogonalEdgeStyle;rounded=0;orthogonalLoop=1;jettySize=auto;html=1;" edge="1" parent="1" source="rjuNrRQVReYTl4HhuxSp-17">
          <mxGeometry relative="1" as="geometry">
            <mxPoint x="530" y="440" as="targetPoint" />
          </mxGeometry>
        </mxCell>
        <mxCell id="rjuNrRQVReYTl4HhuxSp-17" value="Identity cookie" style="rounded=0;whiteSpace=wrap;html=1;" vertex="1" parent="1">
          <mxGeometry x="440" y="420" width="50" height="40" as="geometry" />
        </mxCell>
        <mxCell id="rjuNrRQVReYTl4HhuxSp-19" value="MSSQL" style="strokeWidth=2;html=1;shape=mxgraph.flowchart.database;whiteSpace=wrap;" vertex="1" parent="1">
          <mxGeometry x="260" y="400" width="60" height="60" as="geometry" />
        </mxCell>
        <mxCell id="rjuNrRQVReYTl4HhuxSp-97" style="edgeStyle=orthogonalEdgeStyle;rounded=0;orthogonalLoop=1;jettySize=auto;html=1;entryX=0;entryY=0.5;entryDx=0;entryDy=0;" edge="1" parent="1" source="rjuNrRQVReYTl4HhuxSp-20" target="rjuNrRQVReYTl4HhuxSp-98">
          <mxGeometry relative="1" as="geometry">
            <mxPoint x="430" y="30" as="targetPoint" />
          </mxGeometry>
        </mxCell>
        <mxCell id="rjuNrRQVReYTl4HhuxSp-20" value="Identity cookie" style="rounded=0;whiteSpace=wrap;html=1;" vertex="1" parent="1">
          <mxGeometry x="230" width="120" height="60" as="geometry" />
        </mxCell>
        <mxCell id="rjuNrRQVReYTl4HhuxSp-25" value="Yes" style="edgeStyle=orthogonalEdgeStyle;rounded=0;orthogonalLoop=1;jettySize=auto;html=1;" edge="1" parent="1" source="rjuNrRQVReYTl4HhuxSp-24">
          <mxGeometry relative="1" as="geometry">
            <mxPoint x="570" y="530" as="targetPoint" />
            <Array as="points">
              <mxPoint x="570" y="510" />
              <mxPoint x="570" y="510" />
            </Array>
          </mxGeometry>
        </mxCell>
        <mxCell id="rjuNrRQVReYTl4HhuxSp-30" value="No" style="edgeStyle=orthogonalEdgeStyle;rounded=0;orthogonalLoop=1;jettySize=auto;html=1;entryX=0.5;entryY=0;entryDx=0;entryDy=0;" edge="1" parent="1" source="rjuNrRQVReYTl4HhuxSp-24" target="rjuNrRQVReYTl4HhuxSp-28">
          <mxGeometry relative="1" as="geometry" />
        </mxCell>
        <mxCell id="rjuNrRQVReYTl4HhuxSp-24" value="Select company?" style="rhombus;whiteSpace=wrap;html=1;" vertex="1" parent="1">
          <mxGeometry x="530" y="400" width="80" height="80" as="geometry" />
        </mxCell>
        <mxCell id="rjuNrRQVReYTl4HhuxSp-32" style="edgeStyle=orthogonalEdgeStyle;rounded=0;orthogonalLoop=1;jettySize=auto;html=1;" edge="1" parent="1" source="rjuNrRQVReYTl4HhuxSp-28" target="rjuNrRQVReYTl4HhuxSp-33">
          <mxGeometry relative="1" as="geometry">
            <mxPoint x="750.0000000000002" y="630" as="targetPoint" />
          </mxGeometry>
        </mxCell>
        <mxCell id="rjuNrRQVReYTl4HhuxSp-28" value="flowaccount-ui(ssr)" style="rounded=0;whiteSpace=wrap;html=1;" vertex="1" parent="1">
          <mxGeometry x="690" y="520" width="120" height="60" as="geometry" />
        </mxCell>
        <mxCell id="rjuNrRQVReYTl4HhuxSp-31" style="edgeStyle=orthogonalEdgeStyle;rounded=0;orthogonalLoop=1;jettySize=auto;html=1;" edge="1" parent="1" source="rjuNrRQVReYTl4HhuxSp-29" target="rjuNrRQVReYTl4HhuxSp-28">
          <mxGeometry relative="1" as="geometry" />
        </mxCell>
        <mxCell id="rjuNrRQVReYTl4HhuxSp-29" value="select company" style="rounded=0;whiteSpace=wrap;html=1;" vertex="1" parent="1">
          <mxGeometry x="535" y="530" width="85" height="40" as="geometry" />
        </mxCell>
        <mxCell id="rjuNrRQVReYTl4HhuxSp-35" value="No have u1" style="edgeStyle=orthogonalEdgeStyle;rounded=0;orthogonalLoop=1;jettySize=auto;html=1;entryX=1;entryY=0.5;entryDx=0;entryDy=0;" edge="1" parent="1" source="rjuNrRQVReYTl4HhuxSp-33" target="rjuNrRQVReYTl4HhuxSp-38">
          <mxGeometry relative="1" as="geometry">
            <mxPoint x="530" y="681" as="targetPoint" />
          </mxGeometry>
        </mxCell>
        <mxCell id="rjuNrRQVReYTl4HhuxSp-42" value="have u1" style="edgeStyle=orthogonalEdgeStyle;rounded=0;orthogonalLoop=1;jettySize=auto;html=1;" edge="1" parent="1" source="rjuNrRQVReYTl4HhuxSp-33">
          <mxGeometry relative="1" as="geometry">
            <mxPoint x="750.0000000000002" y="800" as="targetPoint" />
          </mxGeometry>
        </mxCell>
        <mxCell id="rjuNrRQVReYTl4HhuxSp-33" value="check u1 cookie" style="rhombus;whiteSpace=wrap;html=1;" vertex="1" parent="1">
          <mxGeometry x="710.0000000000002" y="640" width="80" height="80" as="geometry" />
        </mxCell>
        <mxCell id="rjuNrRQVReYTl4HhuxSp-41" style="edgeStyle=orthogonalEdgeStyle;rounded=0;orthogonalLoop=1;jettySize=auto;html=1;entryX=1;entryY=0.5;entryDx=0;entryDy=0;entryPerimeter=0;" edge="1" parent="1" source="rjuNrRQVReYTl4HhuxSp-38" target="rjuNrRQVReYTl4HhuxSp-39">
          <mxGeometry relative="1" as="geometry" />
        </mxCell>
        <mxCell id="rjuNrRQVReYTl4HhuxSp-38" value="ask for token" style="rounded=0;whiteSpace=wrap;html=1;" vertex="1" parent="1">
          <mxGeometry x="570" y="650" width="40" height="60" as="geometry" />
        </mxCell>
        <mxCell id="rjuNrRQVReYTl4HhuxSp-44" style="edgeStyle=orthogonalEdgeStyle;rounded=0;orthogonalLoop=1;jettySize=auto;html=1;entryX=0;entryY=0.5;entryDx=0;entryDy=0;" edge="1" parent="1" source="rjuNrRQVReYTl4HhuxSp-39" target="rjuNrRQVReYTl4HhuxSp-43">
          <mxGeometry relative="1" as="geometry">
            <Array as="points">
              <mxPoint x="465" y="825" />
            </Array>
          </mxGeometry>
        </mxCell>
        <mxCell id="rjuNrRQVReYTl4HhuxSp-39" value="Auth" style="sketch=0;points=[[0,0,0],[0.25,0,0],[0.5,0,0],[0.75,0,0],[1,0,0],[0,1,0],[0.25,1,0],[0.5,1,0],[0.75,1,0],[1,1,0],[0,0.25,0],[0,0.5,0],[0,0.75,0],[1,0.25,0],[1,0.5,0],[1,0.75,0]];outlineConnect=0;fontColor=#232F3E;gradientColor=#F78E04;gradientDirection=north;fillColor=#D05C17;strokeColor=#ffffff;dashed=0;verticalLabelPosition=bottom;verticalAlign=top;align=center;html=1;fontSize=12;fontStyle=0;aspect=fixed;shape=mxgraph.aws4.resourceIcon;resIcon=mxgraph.aws4.ecs;" vertex="1" parent="1">
          <mxGeometry x="426" y="640" width="78" height="78" as="geometry" />
        </mxCell>
        <mxCell id="rjuNrRQVReYTl4HhuxSp-45" style="edgeStyle=orthogonalEdgeStyle;rounded=0;orthogonalLoop=1;jettySize=auto;html=1;" edge="1" parent="1" source="rjuNrRQVReYTl4HhuxSp-43" target="rjuNrRQVReYTl4HhuxSp-46">
          <mxGeometry relative="1" as="geometry">
            <mxPoint x="750.0000000000002" y="910" as="targetPoint" />
          </mxGeometry>
        </mxCell>
        <mxCell id="rjuNrRQVReYTl4HhuxSp-57" style="edgeStyle=orthogonalEdgeStyle;rounded=0;orthogonalLoop=1;jettySize=auto;html=1;" edge="1" parent="1" source="rjuNrRQVReYTl4HhuxSp-43">
          <mxGeometry relative="1" as="geometry">
            <mxPoint x="849.9999999999998" y="825" as="targetPoint" />
          </mxGeometry>
        </mxCell>
        <mxCell id="rjuNrRQVReYTl4HhuxSp-43" value="u1,u1p cookie" style="rounded=1;whiteSpace=wrap;html=1;" vertex="1" parent="1">
          <mxGeometry x="690" y="800" width="120" height="50" as="geometry" />
        </mxCell>
        <mxCell id="rjuNrRQVReYTl4HhuxSp-85" style="edgeStyle=orthogonalEdgeStyle;rounded=0;orthogonalLoop=1;jettySize=auto;html=1;entryX=0.5;entryY=0;entryDx=0;entryDy=0;" edge="1" parent="1" source="rjuNrRQVReYTl4HhuxSp-46" target="rjuNrRQVReYTl4HhuxSp-52">
          <mxGeometry relative="1" as="geometry" />
        </mxCell>
        <mxCell id="rjuNrRQVReYTl4HhuxSp-86" style="edgeStyle=orthogonalEdgeStyle;rounded=0;orthogonalLoop=1;jettySize=auto;html=1;entryX=0.5;entryY=0;entryDx=0;entryDy=0;" edge="1" parent="1" source="rjuNrRQVReYTl4HhuxSp-46" target="rjuNrRQVReYTl4HhuxSp-53">
          <mxGeometry relative="1" as="geometry" />
        </mxCell>
        <mxCell id="rjuNrRQVReYTl4HhuxSp-87" style="edgeStyle=orthogonalEdgeStyle;rounded=0;orthogonalLoop=1;jettySize=auto;html=1;entryX=0.5;entryY=0;entryDx=0;entryDy=0;" edge="1" parent="1" source="rjuNrRQVReYTl4HhuxSp-46" target="rjuNrRQVReYTl4HhuxSp-51">
          <mxGeometry relative="1" as="geometry" />
        </mxCell>
        <mxCell id="rjuNrRQVReYTl4HhuxSp-46" value="&lt;div&gt;redirect to ui&lt;/div&gt;&amp;nbsp;home page" style="rounded=1;whiteSpace=wrap;html=1;" vertex="1" parent="1">
          <mxGeometry x="690" y="890" width="120" height="120" as="geometry" />
        </mxCell>
        <mxCell id="rjuNrRQVReYTl4HhuxSp-90" style="edgeStyle=orthogonalEdgeStyle;rounded=0;orthogonalLoop=1;jettySize=auto;html=1;entryX=1;entryY=0.25;entryDx=0;entryDy=0;" edge="1" parent="1" source="rjuNrRQVReYTl4HhuxSp-51" target="rjuNrRQVReYTl4HhuxSp-55">
          <mxGeometry relative="1" as="geometry" />
        </mxCell>
        <mxCell id="rjuNrRQVReYTl4HhuxSp-51" value="api-core" style="rounded=0;whiteSpace=wrap;html=1;" vertex="1" parent="1">
          <mxGeometry x="870" y="1060" width="120" height="60" as="geometry" />
        </mxCell>
        <mxCell id="rjuNrRQVReYTl4HhuxSp-89" style="edgeStyle=orthogonalEdgeStyle;rounded=0;orthogonalLoop=1;jettySize=auto;html=1;entryX=0;entryY=0.25;entryDx=0;entryDy=0;" edge="1" parent="1" source="rjuNrRQVReYTl4HhuxSp-52" target="rjuNrRQVReYTl4HhuxSp-55">
          <mxGeometry relative="1" as="geometry" />
        </mxCell>
        <mxCell id="rjuNrRQVReYTl4HhuxSp-52" value="profile" style="rounded=0;whiteSpace=wrap;html=1;" vertex="1" parent="1">
          <mxGeometry x="517.5" y="1060" width="120" height="60" as="geometry" />
        </mxCell>
        <mxCell id="rjuNrRQVReYTl4HhuxSp-88" style="edgeStyle=orthogonalEdgeStyle;rounded=0;orthogonalLoop=1;jettySize=auto;html=1;entryX=0.5;entryY=0;entryDx=0;entryDy=0;" edge="1" parent="1" source="rjuNrRQVReYTl4HhuxSp-53" target="rjuNrRQVReYTl4HhuxSp-55">
          <mxGeometry relative="1" as="geometry" />
        </mxCell>
        <mxCell id="rjuNrRQVReYTl4HhuxSp-53" value="report-api" style="rounded=0;whiteSpace=wrap;html=1;" vertex="1" parent="1">
          <mxGeometry x="690" y="1060" width="120" height="60" as="geometry" />
        </mxCell>
        <mxCell id="rjuNrRQVReYTl4HhuxSp-62" style="edgeStyle=orthogonalEdgeStyle;rounded=0;orthogonalLoop=1;jettySize=auto;html=1;entryX=0.498;entryY=-0.09;entryDx=0;entryDy=0;entryPerimeter=0;" edge="1" parent="1" source="rjuNrRQVReYTl4HhuxSp-55" target="rjuNrRQVReYTl4HhuxSp-60">
          <mxGeometry relative="1" as="geometry" />
        </mxCell>
        <mxCell id="rjuNrRQVReYTl4HhuxSp-55" value="current.Profile" style="rounded=0;whiteSpace=wrap;html=1;" vertex="1" parent="1">
          <mxGeometry x="690" y="1160" width="120" height="60" as="geometry" />
        </mxCell>
        <mxCell id="rjuNrRQVReYTl4HhuxSp-58" value="Auth will store this in redis:Persisted" style="rounded=0;whiteSpace=wrap;html=1;" vertex="1" parent="1">
          <mxGeometry x="850" y="795" width="120" height="60" as="geometry" />
        </mxCell>
        <mxCell id="rjuNrRQVReYTl4HhuxSp-83" value="Store the generated key" style="edgeStyle=orthogonalEdgeStyle;rounded=0;orthogonalLoop=1;jettySize=auto;html=1;entryX=1;entryY=0.5;entryDx=0;entryDy=0;startArrow=classic;startFill=1;endArrow=none;endFill=0;" edge="1" parent="1" source="rjuNrRQVReYTl4HhuxSp-60" target="rjuNrRQVReYTl4HhuxSp-79">
          <mxGeometry relative="1" as="geometry">
            <Array as="points">
              <mxPoint x="990" y="1301" />
              <mxPoint x="990" y="1840" />
            </Array>
          </mxGeometry>
        </mxCell>
        <mxCell id="rjuNrRQVReYTl4HhuxSp-84" style="edgeStyle=orthogonalEdgeStyle;rounded=0;orthogonalLoop=1;jettySize=auto;html=1;entryX=0.5;entryY=0;entryDx=0;entryDy=0;" edge="1" parent="1" source="rjuNrRQVReYTl4HhuxSp-60" target="rjuNrRQVReYTl4HhuxSp-63">
          <mxGeometry relative="1" as="geometry" />
        </mxCell>
        <mxCell id="rjuNrRQVReYTl4HhuxSp-60" value="SignalrScaleout" style="sketch=0;aspect=fixed;html=1;points=[];align=center;image;fontSize=12;image=img/lib/mscae/Cache_Redis_Product.svg;" vertex="1" parent="1">
          <mxGeometry x="725" y="1280" width="50" height="42" as="geometry" />
        </mxCell>
        <mxCell id="rjuNrRQVReYTl4HhuxSp-69" value="Have key" style="edgeStyle=orthogonalEdgeStyle;rounded=0;orthogonalLoop=1;jettySize=auto;html=1;" edge="1" parent="1" source="rjuNrRQVReYTl4HhuxSp-63">
          <mxGeometry relative="1" as="geometry">
            <mxPoint x="600" y="1440" as="targetPoint" />
          </mxGeometry>
        </mxCell>
        <mxCell id="rjuNrRQVReYTl4HhuxSp-70" value="No Key" style="edgeStyle=orthogonalEdgeStyle;rounded=0;orthogonalLoop=1;jettySize=auto;html=1;" edge="1" parent="1" source="rjuNrRQVReYTl4HhuxSp-63">
          <mxGeometry relative="1" as="geometry">
            <mxPoint x="750.0000000000002" y="1560" as="targetPoint" />
          </mxGeometry>
        </mxCell>
        <mxCell id="rjuNrRQVReYTl4HhuxSp-63" value="check key in redis" style="rhombus;whiteSpace=wrap;html=1;" vertex="1" parent="1">
          <mxGeometry x="710" y="1400" width="80" height="80" as="geometry" />
        </mxCell>
        <mxCell id="rjuNrRQVReYTl4HhuxSp-68" value="&lt;div&gt;company:xxx:profile&lt;/div&gt;&lt;div&gt;user:xxx:profile&lt;br&gt;&lt;/div&gt;" style="text;html=1;strokeColor=none;fillColor=none;align=center;verticalAlign=middle;whiteSpace=wrap;rounded=0;" vertex="1" parent="1">
          <mxGeometry x="790" y="1440" width="55" height="70" as="geometry" />
        </mxCell>
        <mxCell id="rjuNrRQVReYTl4HhuxSp-72" value="profile-generator" style="outlineConnect=0;dashed=0;verticalLabelPosition=bottom;verticalAlign=top;align=center;html=1;shape=mxgraph.aws3.lambda_function;fillColor=#F58534;gradientColor=none;" vertex="1" parent="1">
          <mxGeometry x="715.5" y="1560" width="69" height="72" as="geometry" />
        </mxCell>
        <mxCell id="rjuNrRQVReYTl4HhuxSp-73" value="mssql" style="shape=cylinder3;whiteSpace=wrap;html=1;boundedLbl=1;backgroundOutline=1;size=15;" vertex="1" parent="1">
          <mxGeometry x="600" y="1690" width="40" height="50" as="geometry" />
        </mxCell>
        <mxCell id="rjuNrRQVReYTl4HhuxSp-74" value="aurora" style="shape=cylinder3;whiteSpace=wrap;html=1;boundedLbl=1;backgroundOutline=1;size=15;" vertex="1" parent="1">
          <mxGeometry x="685" y="1690" width="40" height="50" as="geometry" />
        </mxCell>
        <mxCell id="rjuNrRQVReYTl4HhuxSp-75" value="dynamodb" style="shape=cylinder3;whiteSpace=wrap;html=1;boundedLbl=1;backgroundOutline=1;size=15;" vertex="1" parent="1">
          <mxGeometry x="770" y="1690" width="40" height="50" as="geometry" />
        </mxCell>
        <mxCell id="rjuNrRQVReYTl4HhuxSp-76" value="mongodb" style="shape=cylinder3;whiteSpace=wrap;html=1;boundedLbl=1;backgroundOutline=1;size=15;" vertex="1" parent="1">
          <mxGeometry x="860" y="1690" width="40" height="50" as="geometry" />
        </mxCell>
        <mxCell id="rjuNrRQVReYTl4HhuxSp-77" value="" style="shape=flexArrow;endArrow=classic;html=1;rounded=0;" edge="1" parent="1">
          <mxGeometry width="50" height="50" relative="1" as="geometry">
            <mxPoint x="750" y="1632" as="sourcePoint" />
            <mxPoint x="750" y="1702" as="targetPoint" />
          </mxGeometry>
        </mxCell>
        <mxCell id="rjuNrRQVReYTl4HhuxSp-95" value="Have key" style="edgeStyle=orthogonalEdgeStyle;rounded=0;orthogonalLoop=1;jettySize=auto;html=1;" edge="1" parent="1" source="rjuNrRQVReYTl4HhuxSp-79" target="rjuNrRQVReYTl4HhuxSp-81">
          <mxGeometry relative="1" as="geometry">
            <mxPoint x="530" y="1650" as="targetPoint" />
          </mxGeometry>
        </mxCell>
        <mxCell id="rjuNrRQVReYTl4HhuxSp-79" value="&lt;div&gt;generate key: company, user&lt;br&gt;&lt;/div&gt;" style="shape=parallelogram;perimeter=parallelogramPerimeter;whiteSpace=wrap;html=1;fixedSize=1;" vertex="1" parent="1">
          <mxGeometry x="690" y="1810" width="120" height="60" as="geometry" />
        </mxCell>
        <mxCell id="rjuNrRQVReYTl4HhuxSp-80" value="" style="shape=flexArrow;endArrow=classic;html=1;rounded=0;" edge="1" parent="1">
          <mxGeometry width="50" height="50" relative="1" as="geometry">
            <mxPoint x="749.62" y="1740" as="sourcePoint" />
            <mxPoint x="749.62" y="1810" as="targetPoint" />
          </mxGeometry>
        </mxCell>
        <mxCell id="rjuNrRQVReYTl4HhuxSp-81" value="Authorize complete" style="rounded=0;whiteSpace=wrap;html=1;" vertex="1" parent="1">
          <mxGeometry x="480" y="1410" width="120" height="60" as="geometry" />
        </mxCell>
        <mxCell id="rjuNrRQVReYTl4HhuxSp-91" value="Highlight" style="outlineConnect=0;gradientColor=none;html=1;whiteSpace=wrap;fontSize=12;fontStyle=0;strokeColor=#FF9900;fillColor=none;verticalAlign=top;align=center;fontColor=#FF9900;dashed=0;spacingTop=3;" vertex="1" parent="1">
          <mxGeometry x="685" y="1236" width="130" height="130" as="geometry" />
        </mxCell>
        <mxCell id="rjuNrRQVReYTl4HhuxSp-92" value="Highlight" style="outlineConnect=0;gradientColor=none;html=1;whiteSpace=wrap;fontSize=12;fontStyle=0;strokeColor=#FF9900;fillColor=none;verticalAlign=top;align=center;fontColor=#FF9900;dashed=0;spacingTop=3;" vertex="1" parent="1">
          <mxGeometry x="680" y="1531" width="130" height="130" as="geometry" />
        </mxCell>
        <mxCell id="rjuNrRQVReYTl4HhuxSp-94" value="Highlight" style="outlineConnect=0;gradientColor=none;html=1;whiteSpace=wrap;fontSize=12;fontStyle=0;strokeColor=#FF9900;fillColor=none;verticalAlign=top;align=center;fontColor=#FF9900;dashed=0;spacingTop=3;" vertex="1" parent="1">
          <mxGeometry x="550" y="1661" width="380" height="89" as="geometry" />
        </mxCell>
        <mxCell id="rjuNrRQVReYTl4HhuxSp-99" style="edgeStyle=orthogonalEdgeStyle;rounded=0;orthogonalLoop=1;jettySize=auto;html=1;entryX=1;entryY=0.5;entryDx=0;entryDy=0;" edge="1" parent="1" source="rjuNrRQVReYTl4HhuxSp-98" target="rjuNrRQVReYTl4HhuxSp-28">
          <mxGeometry relative="1" as="geometry" />
        </mxCell>
        <mxCell id="rjuNrRQVReYTl4HhuxSp-98" value="create company" style="rounded=0;whiteSpace=wrap;html=1;" vertex="1" parent="1">
          <mxGeometry x="440" width="120" height="60" as="geometry" />
        </mxCell>
      </root>
    </mxGraphModel>
  </diagram>
</mxfile>
